<?xml version="1.0" ?><!DOCTYPE svg  PUBLIC '-//W3C//DTD SVG 1.1//EN'  'http://www.w3.org/Graphics/SVG/1.1/DTD/svg11.dtd'><svg height="30px" style="enable-background:new 0 0 512 512;" version="1.1" viewBox="0 0 512 512" width="30px" xml:space="preserve" xmlns="http://www.w3.org/2000/svg" xmlns:xlink="http://www.w3.org/1999/xlink"><g id="_x35_6-linkedin"><g><circle cx="256" cy="256" r="240" style="fill:#1B80E4;"/><g><rect height="203.444" style="fill:#FFFFFF;" width="66.223" x="110.052" y="199.467"/><path d="M356.656,201.853c-0.704-0.22-1.371-0.46-2.108-0.667c-0.891-0.202-1.778-0.371-2.687-0.516     c-3.513-0.705-7.368-1.203-11.882-1.203c-38.605,0-63.097,28.06-71.162,38.895v-38.895h-66.224v203.444h66.224V291.942     c0,0,50.043-69.652,71.162-18.499v129.468h66.206V265.624C406.186,234.883,385.102,209.269,356.656,201.853L356.656,201.853z      M356.656,201.853" style="fill:#FFFFFF;"/><path d="M174.832,139.358c0,17.878-14.505,32.367-32.391,32.367c-17.888,0-32.39-14.489-32.39-32.367     c0-17.874,14.502-32.365,32.39-32.365C160.327,106.993,174.832,121.484,174.832,139.358L174.832,139.358z M174.832,139.358" style="fill:#FFFFFF;"/></g></g><linearGradient gradientUnits="userSpaceOnUse" id="SVGID_1_" x1="256" x2="256" y1="39.5459" y2="472.4546"><stop offset="0" style="stop-color:#FFFFFF"/><stop offset="0.1413" style="stop-color:#FFFFFF;stop-opacity:0.8587"/><stop offset="1" style="stop-color:#FFFFFF;stop-opacity:0"/></linearGradient><circle cx="256" cy="256.001" r="216.455" style="fill:url(#SVGID_1_);"/></g><g id="Layer_1"/></svg>