<?xml version="1.0" ?><!DOCTYPE svg  PUBLIC '-//W3C//DTD SVG 1.1//EN'  'http://www.w3.org/Graphics/SVG/1.1/DTD/svg11.dtd'><svg height="30px" style="enable-background:new 0 0 512 512;" version="1.1" viewBox="0 0 512 512" width="30px" xml:space="preserve" xmlns="http://www.w3.org/2000/svg" xmlns:xlink="http://www.w3.org/1999/xlink"><g id="_x32_4-twitter_x2C__tweet"><g><circle cx="256" cy="256" r="240" style="fill:#03ACF8;"/><g><path d="M406.186,163.199c-11.013,4.829-22.751,8.03-34.982,9.58c12.588-7.507,22.191-19.31,26.707-33.531     c-11.735,6.992-24.688,11.933-38.496,14.687c-11.145-11.857-27.023-19.199-44.346-19.199c-33.612,0-60.67,27.264-60.67,60.685     c0,4.809,0.406,9.431,1.407,13.835c-50.475-2.464-95.135-26.633-125.137-63.458c-5.239,9.079-8.311,19.476-8.311,30.664     c0,21.01,10.827,39.634,26.969,50.416c-9.755-0.183-19.325-3.012-27.432-7.468v0.664c0,29.479,21.046,53.966,48.64,59.606     c-4.942,1.351-10.326,1.998-15.918,1.998c-3.883,0-7.81-0.225-11.492-1.035c7.868,24.024,30.188,41.688,56.729,42.26     c-20.655,16.146-46.882,25.873-75.272,25.873c-4.978,0-9.754-0.217-14.529-0.829c26.891,17.33,58.764,27.223,93.136,27.223     c111.713,0,172.793-92.474,172.793-172.629c0-2.683-0.097-5.273-0.225-7.841C387.807,186.153,397.931,175.481,406.186,163.199     L406.186,163.199z M406.186,163.199" style="fill:#FFFFFF;"/></g></g><linearGradient gradientUnits="userSpaceOnUse" id="SVGID_1_" x1="256" x2="256" y1="39.5459" y2="472.4546"><stop offset="0" style="stop-color:#FFFFFF"/><stop offset="0.1413" style="stop-color:#FFFFFF;stop-opacity:0.8587"/><stop offset="1" style="stop-color:#FFFFFF;stop-opacity:0"/></linearGradient><circle cx="256" cy="256.001" r="216.455" style="fill:url(#SVGID_1_);"/></g><g id="Layer_1"/></svg>